<?xml version="1.0" encoding="UTF-8"?>
<svg id="Layer_2" data-name="Layer 2" xmlns="http://www.w3.org/2000/svg" viewBox="0 0 354.14 142.29">
  <defs>
    <style>
      .cls-1 {
        fill: #f15b3b;
        stroke-width: 0px;
      }
    </style>
  </defs>
  <g id="Layer_1-2" data-name="Layer 1">
    <g>
      <path class="cls-1" d="M0,142.29V0h133.07v142.29H0ZM44.36,44.48h-12.12l-3.15,21.33h12.36l-3.15,19.39h-12.12l-2.91,21.33h12.36l-3.64,21.33h22.3l3.39-21.33h9.21l-3.39,21.33h22.06l3.39-21.33h12.12l2.91-21.33h-12.36l3.15-19.39h12.12l3.15-21.33h-12.36l2.91-19.15h-22.06l-2.91,19.15h-9.21l2.91-19.15h-22.06l-2.91,19.15ZM60.36,85.2l2.91-19.39h9.45l-3.15,19.39h-9.21Z"/>
      <path class="cls-1" d="M261.54,70.29h-9.7V9.7h-55.99v24.72h-43.15c-.32,0-1.19.61-2.61,1.82-1.41,1.21-3.07,2.75-4.97,4.61-1.9,1.86-3.78,3.74-5.64,5.64-1.86,1.9-3.39,3.54-4.61,4.91-1.21,1.37-1.82,2.18-1.82,2.42v18.66h-9.7V24.72h62.78V0h75.38v70.29ZM123.38,55.27h9.7v55.75h-9.7v-55.75ZM133.07,74.41v38.54c0,.24.63,1.05,1.88,2.42,1.25,1.37,2.81,3.01,4.67,4.91,1.86,1.9,3.76,3.78,5.7,5.64,1.94,1.86,3.59,3.39,4.97,4.61,1.37,1.21,2.18,1.82,2.42,1.82h41.45v9.7h-70.78v-67.63h9.7ZM187.61,83.14v-15.03c0-.48.04-.77.12-.85.08-.08.36-.12.85-.12h7.76c.48,0,.77.04.85.12.08.08.12.36.12.85v30.06c0,.48-.04.77-.12.85s-.36.12-.85.12h-7.76c-.48,0-.77-.04-.85-.12-.08-.08-.12-.36-.12-.85v-15.03ZM261.54,74.41v67.63h-70.78v-9.7h61.08v-57.93h9.7ZM261.54,55.27v55.75h-9.7v-55.75h9.7Z"/>
      <path class="cls-1" d="M251.85,72.23V0h75.38v24.72c.24,0,.28,0,.12,0s.52,0,2.06,0h23.75c.48,0,.77.04.85.12.08.08.12.44.12,1.09v48.96h-9.7v-40.48h-26.91V9.7h-55.99v62.54h-9.7ZM251.85,99.14v-55.75h9.7v55.75h-9.7ZM251.85,74.41h9.7v38.54c0,.24.63,1.05,1.88,2.42,1.25,1.37,2.81,3.01,4.67,4.91,1.86,1.9,3.76,3.78,5.7,5.64,1.94,1.86,3.59,3.39,4.97,4.61,1.37,1.21,2.18,1.82,2.42,1.82h23.51v9.7h-52.84v-67.63ZM354.14,74.41v67.63h-52.84v-9.7h43.15v-57.93h9.7ZM314.69,76.41c.04-.12.12-.2.24-.24.12-.04.34-.06.67-.06h37.33c.48,0,.77.04.85.12.08.08.12.36.12.85v7.76c0,.48-.04.77-.12.85s-.36.12-.85.12h-37.33c-.32,0-.55-.02-.67-.06-.12-.04-.2-.12-.24-.24-.04-.12-.06-.34-.06-.67v-7.76c0-.32.02-.55.06-.67Z"/>
    </g>
  </g>
</svg>